<svg id="_" data-name="ͼ" xmlns="http://www.w3.org/2000/svg" viewBox="0 0 379.76 110.65"><defs><style>.cls-1{fill:#00449b;}.cls-1,.cls-2,.cls-3{fill-rule:evenodd;}.cls-2{fill:#d00b16;}.cls-3,.cls-4{fill:#231815;}</style></defs><title>天辰信logo</title><path class="cls-1" d="M165.4,456.39H123.11V452h7.69V366.64h-7.69v-4.33H163.7q2.95-.05,5.85,0c-15.26,11.07-22.91,28-22.91,47.06s7.65,36,22.91,47.1C168.19,456.44,166.8,456.44,165.4,456.39Z" transform="translate(-123.11 -354.06)"/><path class="cls-1" d="M178.32,415.76c5.16,29.38,47.39,32.66,65.42,12.62,8.16-9.08,2.61-22.18-7.79-21-1.72-11.63-19.81-12.75-22.22,0-23.22,1.69-9.9,30.75,18.29,12.41.53-.35,1.18.08.78.65-.13.18-.31.38-.45.57-.32.45-.26.9.33.44.42-.32.86-.7,1,0,.2,1.13-1.59,2.26-2.25,2.65-1,.62-.27,1.1.48.61.58-.37,1.21-.94,1.73-1a.7.7,0,0,1,.74.69c0,.95-2.18,2.2-2.84,2.62a5.39,5.39,0,0,0-.87.61c-.27.29-.13.76.29.69a2.1,2.1,0,0,0,.4-.12c.56-.22,1.32-.68,1.84-.88s.86.42.46.76-.81.6-1.21.89c-17.83,12.57-49.67,3.89-42.64-17.34A19,19,0,0,1,208.2,398.7c-1.06-22.05,35.16-21.74,34.57,0,8.65-2,16.35,3.17,19.18,11.23,6.75,19.21-13.2,53-56.18,51.51-.75,0-1.51,0-2.26,0a76.45,76.45,0,0,1-9.42-1.22H194l1.7-1.26L191.27,451s-15.72-12.32-17.36-14.43-8.45-9.74-8.45-9.74V415.41l12.86.36Zm61.54-.36c.45-.3.68-.74.52-1s-.66-.21-1.1.09-.68.74-.52,1,.66.21,1.1-.09Zm2.91.72c.45-.3.68-.74.52-1s-.66-.21-1.1.09-.68.74-.52,1,.66.21,1.11-.09Zm-5.05,1.28c.61-.41.93-1,.71-1.35s-.9-.28-1.51.12-.93,1-.71,1.35.9.28,1.51-.12Zm-3,2c.6-.42.9-1,.67-1.37s-.91-.26-1.51.17-.9,1-.67,1.37.91.26,1.51-.17Zm.16,2c.43-.26.66-.66.53-.89s-.6-.22-1,0-.66.66-.53.89.6.22,1,0Zm2-1.3c.62-.37,1-.95.76-1.29s-.86-.32-1.48,0-1,.95-.75,1.29.86.32,1.48,0Zm1.55.81c.44-.26.69-.68.54-.92s-.62-.23-1.06,0-.69.68-.54.92.62.23,1.06,0Zm3.68-1.56c.44-.27.69-.68.54-.93s-.62-.23-1.07,0-.69.68-.54.93.62.23,1.06,0Zm-1.82-.68c.84-.5,1.31-1.29,1-1.76s-1.18-.44-2,.07-1.31,1.29-1,1.76,1.18.44,2-.07Zm.55,3.12c.84-.5,1.31-1.29,1-1.76s-1.18-.44-2,.07-1.31,1.29-1,1.76,1.18.44,2-.07ZM237,423.67c1-.59,1.52-1.5,1.2-2s-1.37-.51-2.35.08-1.52,1.5-1.2,2,1.37.51,2.35-.08Zm1.84,1c.63-.37,1-1,.77-1.31s-.88-.32-1.51,0-1,1-.77,1.31.88.32,1.5-.05ZM236,427c.84-.5,1.3-1.29,1-1.75s-1.17-.43-2,.07-1.3,1.29-1,1.75S235.14,427.51,236,427Z" transform="translate(-123.11 -354.06)"/><path class="cls-2" d="M210,354.06a55.35,55.35,0,0,1,53.17,40,44.05,44.05,0,1,0-2.43,36.08C254.32,451,231.38,464.71,210,464.71a55.32,55.32,0,0,1,0-110.65Z" transform="translate(-123.11 -354.06)"/><path class="cls-3" d="M283.64,370.84v-6.56h57.3v6.56H317.57v14.82h26.8v6.27H318.42q3.13,18.54,26.51,28.22v6q-24.8-7.7-32.5-23.38-7.7,15.68-33.07,23.38v-6q24.8-10.83,27.08-28.22h-26.8v-6.27H307V370.84Z" transform="translate(-123.11 -354.06)"/><path class="cls-3" d="M358.47,426.15v-6q5.41-5.13,4.85-17.39V364H422.9v6.27H372.44V388.8h51.32v6H386.41v21.38q5.7-1.42,11.4-3.42V419a127.64,127.64,0,0,1-20,7.13V394.79h-5.42v4.56q1.14,19.67-14,26.8Zm17.39-43.62H419.2v-6H375.86v6ZM423.19,425v-5.7a34.14,34.14,0,0,1-14.25-7.7,23.41,23.41,0,0,0,12.26-14h-8.55a16.12,16.12,0,0,1-7.41,9.69,45.67,45.67,0,0,1-4.85-9.69h-9.12q5.7,21.1,31.93,27.37Z" transform="translate(-123.11 -354.06)"/><path class="cls-3" d="M443.28,426.15V384a38.51,38.51,0,0,1-6.84,3.14v-5.7q9.12-6.55,11.4-20.53h8.84q-2.28,9.7-5.13,14.26v51Zm12.83-53.88h46.76v-6H484.34v-5.42h-10v5.42H456.11v6Zm2.85,11.4h0V378h40.48v5.7Zm0,11.4h0v-5.7h40.48v5.7Zm0,29.36h0V401.34h40.48V415q.28,9.69-9.41,9.41Zm8.55-5.42h19.67q3.7,0,3.71-4v-7.7H467.52Z" transform="translate(-123.11 -354.06)"/><polygon class="cls-3" points="156.71 84.83 156.71 82.42 175.73 82.42 175.73 84.83 168 84.83 168 105 164.34 105 164.34 84.83 156.71 84.83"/><rect class="cls-4" x="179.84" y="82.42" width="3.55" height="22.58"/><path class="cls-3" d="M309.66,459.06l9-22.58H323l9,22.58h-4l-2.3-6.06h-9.83l-2.4,6.06Zm11.18-19.13h0l-4.08,10.66h8Z" transform="translate(-123.11 -354.06)"/><polygon class="cls-3" points="211.98 105 211.98 82.42 215.64 82.42 227.55 99.98 227.55 82.42 231.11 82.42 231.11 105 227.66 105 215.64 87.86 215.64 105 211.98 105"/><path class="cls-3" d="M378.7,443.38H375q-1.25-4.7-5.85-4.81-6.58.52-6.9,9.41.31,8.78,7.74,9.3,5.12,0,8.57-5.75v3.35q-3,4.7-9.51,4.6-10-.53-10.56-11.6.52-11.08,10.56-11.71Q376.72,436.38,378.7,443.38Z" transform="translate(-123.11 -354.06)"/><polygon class="cls-3" points="259.69 105 259.69 82.42 263.35 82.42 263.35 92.14 275.06 92.14 275.06 82.42 278.72 82.42 278.72 105 275.06 105 275.06 94.55 263.35 94.55 263.35 105 259.69 105"/><polygon class="cls-3" points="283.24 105 283.24 82.42 300.49 82.42 300.49 84.83 286.9 84.83 286.9 92.25 299.76 92.25 299.76 94.65 286.9 94.65 286.9 102.81 300.49 102.81 300.49 105 283.24 105"/><polygon class="cls-3" points="304.38 105 304.38 82.42 308.04 82.42 319.96 99.98 319.96 82.42 323.51 82.42 323.51 105 320.06 105 308.04 87.86 308.04 105 304.38 105"/><polygon class="cls-3" points="326.57 105 335.14 93.61 327.3 82.42 331.69 82.42 337.65 91.41 343.61 82.42 348 82.42 340.15 93.61 348.73 105 344.23 105 337.65 95.8 331.06 105 326.57 105"/><rect class="cls-4" x="351.89" y="82.42" width="3.55" height="22.58"/><polygon class="cls-3" points="360.17 105 360.17 82.42 363.83 82.42 375.75 99.98 375.75 82.42 379.3 82.42 379.3 105 375.85 105 363.83 87.86 363.83 105 360.17 105"/></svg>